:SAMPLES-PER-SECOND 30
:FULLY-SPECIFIED
:DEGREES
637
root  -3.31803 40.971 1.13817 1.85605 -86.0375 -0.633728
RightUpLeg  5.70637 -0.841313 -0.411258
RightLeg  -5.36483 -20.5969 1.82568
RightFoot  -0.472984 -0.186111 2.21571
RightToes  -3.10678e-008 1.75238e-005 3.56266e-009
Spine  -3.10335 2.16267 0.00873596
Spine1  2.73993 2.81571 -2.94044
HEad  -10.39 -3.22224 4.25709
LeftShoulder1  1.8558 -2.63869 -23.9799
LeftArm  -41.3706 28.7132 -53.9909
LeftForeArm  64.5005 -15.6867 -2.04284
LeftHand  -0.846664 -3.24548 11.6104
RightShoulder  -0.0334464 -3.70107 8.59408
RightArm  -37.7712 18.1084 2.50286
RightForeArm  -6.772 48.9896 13.4124
RightHand  0.0101963 7.23124 -0.262755
LeftUpLeg  3.09351 0.764595 1.76559
LeftLeg  -2.84282 10.7757 -0.868369
LeftFoot  -0.754143 0.213046 -2.18885
LeftToes  4.76857e-008 1.46588e-008 1.31384e-009
638
root  -3.33052 40.9701 1.12933 2.73993 -86.004 -1.53085
RightUpLeg  5.75095 -0.797065 -0.319077
RightLeg  -5.39052 -20.7051 1.85188
RightFoot  -0.479143 -0.186395 2.2149
RightToes  -3.10678e-008 1.75238e-005 3.56266e-009
Spine  -3.00391 1.9448 -0.640003
Spine1  2.53663 2.45408 -2.10591
HEad  -10.8237 -2.50497 3.76168
LeftShoulder1  1.9106 -2.74664 -24.3547
LeftArm  -40.7554 28.8127 -53.6056
LeftForeArm  63.6614 -15.8216 -2.25785
LeftHand  -0.834069 -3.00841 11.7469
RightShoulder  0.142368 -2.6636 10.0489
RightArm  -33.5302 14.9193 5.56045
RightForeArm  -5.57309 49.4692 13.5629
RightHand  0.067374 6.60998 0.301327
LeftUpLeg  3.08101 0.828951 1.85458
LeftLeg  -2.75963 10.6522 -0.845719
LeftFoot  -0.835269 0.219209 -2.28479
LeftToes  4.76857e-008 1.46588e-008 1.31384e-009
639
root  -3.33888 40.9674 1.11299 2.46567 -86.0228 -1.32986
RightUpLeg  5.75848 -0.831339 -0.329091
RightLeg  -5.20036 -20.6489 1.80361
RightFoot  -0.598575 -0.190924 2.27961
RightToes  -3.10678e-008 1.75238e-005 3.56266e-009
Spine  -3.00358 1.70531 -1.45738
Spine1  2.72533 2.06871 -1.13432
HEad  -11.5123 -2.16926 3.07618
LeftShoulder1  1.90965 -2.67315 -24.718
LeftArm  -40.2163 28.8367 -53.3943
LeftForeArm  63.426 -16.2702 -2.35541
LeftHand  -0.853542 -3.22684 11.7235
RightShoulder  0.327151 -1.76092 11.7572
RightArm  -28.7665 11.0468 8.88795
RightForeArm  -4.07819 49.6893 13.5646
RightHand  0.0849534 6.60257 0.473934
LeftUpLeg  3.16429 0.845131 1.86911
LeftLeg  -2.73306 10.6362 -0.838914
LeftFoot  -0.86189 0.218691 -2.2768
LeftToes  4.76857e-008 1.46588e-008 1.31384e-009
640
root  -3.34797 40.9654 1.08952 1.2489 -85.9991 -0.200958
RightUpLeg  5.83378 -0.905116 -0.391355
RightLeg  -5.11464 -20.5876 1.78038
RightFoot  -0.676792 -0.187515 2.22084
RightToes  -3.10678e-008 1.75238e-005 3.56266e-009
Spine  -2.94964 1.46571 -2.24343
Spine1  2.89522 1.71567 -0.331027
HEad  -11.9942 -2.34853 2.19048
LeftShoulder1  1.87603 -2.56709 -24.7031
LeftArm  -39.7337 28.7954 -53.51
LeftForeArm  63.2422 -16.5086 -2.4525
LeftHand  -0.826876 -3.1628 11.4478
RightShoulder  0.595054 -0.657926 14.1204
RightArm  -24.096 6.75857 12.2506
RightForeArm  -4.013 49.1852 13.3155
RightHand  0.0774897 6.3734 0.422385
LeftUpLeg  3.24087 0.796999 1.80749
LeftLeg  -2.67049 10.6577 -0.794802
LeftFoot  -0.887467 0.22568 -2.38552
LeftToes  4.76857e-008 1.46588e-008 1.31384e-009
641
root  -3.36591 40.9651 1.06182 0.268066 -85.9723 0.720398
RightUpLeg  5.9079 -0.933415 -0.405303
RightLeg  -5.06123 -20.6072 1.74301
RightFoot  -0.76342 -0.189736 2.24913
RightToes  -3.10678e-008 1.75238e-005 3.56266e-009
Spine  -3.08467 1.31025 -2.70595
Spine1  3.2183 1.50047 0.130596
HEad  -12.0968 -3.06359 1.23064
LeftShoulder1  1.9273 -2.71272 -24.8095
LeftArm  -39.1831 28.7069 -53.3918
LeftForeArm  62.6497 -16.5337 -2.59906
LeftHand  -0.858655 -3.21055 11.8144
RightShoulder  0.828968 0.098158 16.4593
RightArm  -19.4861 2.62289 16.1877
RightForeArm  -3.48175 47.1573 12.3554
RightHand  0.0396545 5.94278 0.0734809
LeftUpLeg  3.38806 0.764124 1.77221
LeftLeg  -2.79628 10.6818 -0.799678
LeftFoot  -0.825823 0.22652 -2.39861
LeftToes  4.76857e-008 1.46588e-008 1.31384e-009
642
root  -3.3881 40.9647 1.03823 1.01331 -85.9903 0.0921021
RightUpLeg  5.85235 -0.896571 -0.329841
RightLeg  -5.15344 -20.616 1.81688
RightFoot  -0.758841 -0.18522 2.17262
RightToes  -3.10678e-008 1.75238e-005 3.56266e-009
Spine  -3.3254 1.24925 -3.06662
Spine1  3.30778 1.34258 0.716701
HEad  -12.8282 -2.66549 0.869325
LeftShoulder1  1.98216 -2.87098 -24.9067
LeftArm  -37.9586 29.0359 -53.2321
LeftForeArm  62.1228 -16.8949 -2.84656
LeftHand  -0.836964 -3.10281 11.6624
RightShoulder  1.01576 0.623205 18.1345
RightArm  -13.1871 -1.80963 20.4715
RightForeArm  -5.04672 43.8424 11.0807
RightHand  -0.0417827 5.41764 -0.763196
LeftUpLeg  3.26327 0.788828 1.85239
LeftLeg  -2.72988 10.657 -0.767773
LeftFoot  -0.869802 0.227616 -2.41572
LeftToes  4.76857e-008 1.46588e-008 1.31384e-009
643
root  -3.41946 40.9626 1.00159 1.66284 -86.0832 -0.446442
RightUpLeg  5.79228 -0.825605 -0.232151
RightLeg  -5.20898 -20.5994 1.84948
RightFoot  -0.788146 -0.182443 2.12282
RightToes  -3.10678e-008 1.75238e-005 3.56266e-009
Spine  -3.39307 1.31222 -3.03257
Spine1  3.17855 1.38196 0.820758
HEad  -12.7355 -2.79875 0.0745361
LeftShoulder1  1.96078 -2.77926 -25.0239
LeftArm  -38.2627 28.9118 -53.3577
LeftForeArm  63.2574 -16.7948 -2.74393
LeftHand  -0.854531 -3.53064 11.3635
RightShoulder  1.28945 1.37994 20.0879
RightArm  -6.82042 -6.99784 24.4091
RightForeArm  -4.29092 40.111 9.71431
RightHand  0.0313985 4.73453 0.0664754
LeftUpLeg  3.16673 0.84695 1.95987
LeftLeg  -2.65758 10.6612 -0.754555
LeftFoot  -0.924747 0.231951 -2.48323
LeftToes  4.76857e-008 1.46588e-008 1.31384e-009
644
root  -3.45649 40.9596 0.969297 1.11786 -86.1217 0.1763
RightUpLeg  5.70477 -0.846316 -0.226077
RightLeg  -5.08208 -20.5784 1.82395
RightFoot  -0.902134 -0.175877 2.01401
RightToes  -3.10678e-008 1.75238e-005 3.56266e-009
Spine  -3.27099 1.41321 -3.08936
Spine1  2.86819 1.42398 1.13803
HEad  -12.4789 -3.63917 -1.08918
LeftShoulder1  2.02669 -2.90593 -25.4522
LeftArm  -38.9039 28.9652 -53.472
LeftForeArm  63.8683 -16.8852 -2.56545
LeftHand  -0.841127 -3.90743 10.7531
RightShoulder  1.56215 1.94666 22.4633
RightArm  -2.43698 -11.2702 28.4784
RightForeArm  0.830808 34.6851 7.73324
RightHand  0.220226 4.50073 2.31905
LeftUpLeg  3.17324 0.76959 1.92426
LeftLeg  -2.72286 10.7897 -0.698302
LeftFoot  -0.903505 0.234736 -2.52671
LeftToes  4.76857e-008 1.46588e-008 1.31384e-009
